<svg width="1920" height="1150" viewBox="0 0 1920 1150" fill="none" xmlns="http://www.w3.org/2000/svg">
<rect width="1920" height="1150" fill="#081438"/>
<g opacity="0.6">
<rect width="5.59836" height="5.59836" transform="matrix(0.707096 0.707118 -0.707096 0.707118 818.827 642.167)" fill="#2C2ABB"/>
<rect x="920.491" y="661.126" width="3.53503" height="3.53503" transform="rotate(45 920.491 661.126)" fill="#2C2ABB"/>
<rect x="754.665" y="609.93" width="4.64048" height="4.64048" transform="rotate(45 754.665 609.93)" fill="#2C2ABB"/>
<rect x="879.029" y="616.491" width="6.33179" height="6.33179" transform="rotate(45 879.029 616.491)" fill="#2C2ABB"/>
<rect width="8.2502" height="8.2502" transform="matrix(0.707114 0.707099 -0.707114 0.707099 774.247 693.415)" fill="#2C2ABB"/>
<rect x="905.074" y="742.893" width="3.68371" height="3.68371" transform="rotate(45 905.074 742.893)" fill="#2C2ABB"/>
<rect x="877.887" y="678.828" width="4.71694" height="4.71694" transform="rotate(45 877.887 678.828)" fill="#2C2ABB"/>
<rect width="3.97882" height="3.97882" transform="matrix(0.707122 0.707091 -0.707122 0.707091 834.659 681.854)" fill="#2C2ABB"/>
<rect x="854.242" y="698.207" width="5.45388" height="5.45388" transform="rotate(45 854.242 698.207)" fill="#2C2ABB"/>
<rect x="814.139" y="714.663" width="5.7468" height="5.7468" transform="rotate(45 814.139 714.663)" fill="#2C2ABB"/>
<rect x="801.848" y="740.808" width="2.94797" height="2.94797" transform="rotate(45 801.848 740.808)" fill="#2C2ABB"/>
</g>
<g opacity="0.6">
<rect width="5.59836" height="5.59836" transform="matrix(0.707118 0.707096 -0.707118 0.707096 1024.68 677.814)" fill="#2C2ABB"/>
<rect x="1126.34" y="696.772" width="3.53503" height="3.53503" transform="rotate(45 1126.34 696.772)" fill="#2C2ABB"/>
<rect x="960.514" y="645.576" width="4.64048" height="4.64048" transform="rotate(45 960.514 645.576)" fill="#2C2ABB"/>
<rect width="6.33179" height="6.33179" transform="matrix(0.707116 0.707097 -0.707116 0.707097 1084.88 652.137)" fill="#2C2ABB"/>
<rect width="8.2502" height="8.2502" transform="matrix(0.707114 0.707099 -0.707114 0.707099 980.097 729.062)" fill="#2C2ABB"/>
<rect x="1110.92" y="778.539" width="3.68371" height="3.68371" transform="rotate(45 1110.92 778.539)" fill="#2C2ABB"/>
<rect x="1083.74" y="714.476" width="4.71694" height="4.71694" transform="rotate(45 1083.74 714.476)" fill="#2C2ABB"/>
<rect x="1040.51" y="717.499" width="3.97882" height="3.97882" transform="rotate(45 1040.51 717.499)" fill="#2C2ABB"/>
<rect width="5.45388" height="5.45388" transform="matrix(0.707096 0.707118 -0.707096 0.707118 1060.09 733.854)" fill="#2C2ABB"/>
<rect x="1019.99" y="750.31" width="5.7468" height="5.7468" transform="rotate(45 1019.99 750.31)" fill="#2C2ABB"/>
<rect x="1007.7" y="776.454" width="2.94797" height="2.94797" transform="rotate(45 1007.7 776.454)" fill="#2C2ABB"/>
</g>
<g opacity="0.6">
<rect x="951.837" y="390.212" width="4.90306" height="4.90306" transform="rotate(45 951.837 390.212)" fill="#2C2ABB"/>
<rect x="1040.87" y="406.816" width="3.09599" height="3.09599" transform="rotate(45 1040.87 406.816)" fill="#2C2ABB"/>
<rect x="895.643" y="361.979" width="4.06415" height="4.06415" transform="rotate(45 895.643 361.979)" fill="#2C2ABB"/>
<rect x="1004.56" y="367.727" width="5.5454" height="5.5454" transform="rotate(45 1004.56 367.727)" fill="#2C2ABB"/>
<rect x="912.792" y="435.096" width="7.22555" height="7.22555" transform="rotate(45 912.792 435.096)" fill="#2C2ABB"/>
<rect width="3.2262" height="3.2262" transform="matrix(0.707088 0.707126 -0.707088 0.707126 1027.37 478.428)" fill="#2C2ABB"/>
<rect x="1003.56" y="422.322" width="4.13111" height="4.13111" transform="rotate(45 1003.56 422.322)" fill="#2C2ABB"/>
<rect x="965.704" y="424.969" width="3.48466" height="3.48466" transform="rotate(45 965.704 424.969)" fill="#2C2ABB"/>
<rect x="982.853" y="439.292" width="4.77652" height="4.77652" transform="rotate(45 982.853 439.292)" fill="#2C2ABB"/>
<rect x="947.731" y="453.706" width="5.03306" height="5.03306" transform="rotate(45 947.731 453.706)" fill="#2C2ABB"/>
<rect width="2.57847" height="2.57847" transform="matrix(0.707083 0.70713 -0.707083 0.70713 936.966 476.604)" fill="#2C2ABB"/>
</g>
<path fill-rule="evenodd" clip-rule="evenodd" d="M921.482 481.417L764.567 568.954L959.376 694.133L1155.43 568.954L997.554 480.881L959.234 501.395L921.482 481.417Z" fill="url(#paint0_linear_714_2856)" fill-opacity="0.8"/>
<path fill-rule="evenodd" clip-rule="evenodd" d="M1167.88 682.775L960.25 566.125L959.996 565.983L959.743 566.125L749.759 684.096L750.74 684.733L959.996 567.17L1166.9 683.413L1167.88 682.775Z" fill="url(#paint1_linear_714_2856)"/>
<path fill-rule="evenodd" clip-rule="evenodd" d="M899.633 469.853L527.589 677.839L957.161 931.539L1392.41 672.162L1022.5 467.527L959.237 501.394L899.633 469.853ZM961.457 538.695L1182.01 673.543L958.542 819.55L737.99 676.458L961.457 538.695Z" fill="url(#paint2_linear_714_2856)"/>
<path d="M765.573 592.857L959.999 483.626L1154.42 592.857L959.999 717.153L765.573 592.857Z" stroke="url(#paint3_linear_714_2856)" stroke-width="1.03515"/>
<path fill-rule="evenodd" clip-rule="evenodd" d="M1076.24 438.762L965.803 379.293L843.76 440.288L963.556 503.556L1076.24 438.762ZM1043.76 438.973L965.704 394.857L876.24 440.073L963.824 484.028L1043.76 438.973Z" fill="url(#paint4_linear_714_2856)"/>
<path d="M845.947 441.073L963.554 503.554L959.372 694.129L766.839 569.78L845.947 441.073Z" fill="url(#paint5_linear_714_2856)" fill-opacity="0.6"/>
<path d="M845.947 441.073L963.554 503.554L959.372 694.129L766.839 569.78L845.947 441.073Z" fill="url(#paint6_linear_714_2856)" fill-opacity="0.4"/>
<path d="M921.415 481.39L843.756 440.281L764.648 568.987L921.415 481.39Z" fill="url(#paint7_linear_714_2856)" fill-opacity="0.8"/>
<path d="M921.415 481.39L843.756 440.281L764.648 568.987L921.415 481.39Z" fill="url(#paint8_linear_714_2856)" fill-opacity="0.4"/>
<path fill-rule="evenodd" clip-rule="evenodd" d="M1000.68 482.257L1076.22 438.756L1155.43 568.968L959.37 694.139L959.377 693.645L1153.98 568.732L1000.68 482.257Z" fill="url(#paint9_linear_714_2856)" fill-opacity="0.8"/>
<path fill-rule="evenodd" clip-rule="evenodd" d="M1076.2 438.765L1076.24 438.744L1076.24 438.745L1076.2 438.765ZM1000.85 482.103L963.56 503.551L959.384 694.128L1155.44 568.957L1155.44 568.951L1000.85 482.103Z" fill="url(#paint10_linear_714_2856)" fill-opacity="0.8"/>
<path fill-rule="evenodd" clip-rule="evenodd" d="M1076.2 438.765L1076.24 438.744L1076.24 438.745L1076.2 438.765ZM1000.85 482.103L963.56 503.551L959.384 694.128L1155.44 568.957L1155.44 568.951L1000.85 482.103Z" fill="url(#paint11_linear_714_2856)" fill-opacity="0.7"/>
<g filter="url(#filter0_f_714_2856)">
<circle cx="846.056" cy="549.996" r="20.8145" transform="rotate(-30 846.056 549.996)" fill="url(#paint12_radial_714_2856)"/>
</g>
<rect width="132.504" height="5.91581" rx="2.95791" transform="matrix(0.866025 -0.500001 0.499999 0.866026 841.445 549.243)" fill="url(#paint13_linear_714_2856)" fill-opacity="0.6"/>
<g filter="url(#filter1_f_714_2856)">
<circle cx="846.056" cy="549.996" r="20.8145" transform="rotate(-30 846.056 549.996)" fill="url(#paint14_radial_714_2856)"/>
</g>
<g filter="url(#filter2_f_714_2856)">
<ellipse cx="20.8145" cy="20.8145" rx="20.8145" ry="20.8145" transform="matrix(-0.866024 -0.500002 -0.499998 0.866026 1074.67 529.314)" fill="url(#paint15_radial_714_2856)"/>
</g>
<rect width="132.504" height="5.91581" rx="2.95791" transform="matrix(-0.866025 -0.500001 -0.499999 0.866026 1050.84 536.179)" fill="url(#paint16_linear_714_2856)" fill-opacity="0.9"/>
<g filter="url(#filter3_f_714_2856)">
<circle cx="27.5373" cy="27.5373" r="27.5373" transform="matrix(-0.866025 -0.5 -0.5 0.866025 1083.85 526.853)" fill="url(#paint17_radial_714_2856)"/>
</g>
<g filter="url(#filter4_f_714_2856)">
<circle cx="20.8145" cy="20.8145" r="20.8145" transform="matrix(-0.838934 -0.544234 -0.544234 0.838934 1057.61 599.358)" fill="url(#paint18_radial_714_2856)"/>
</g>
<rect width="82.3058" height="8.09328" rx="4.04664" transform="matrix(-0.838933 -0.544235 -0.544233 0.838934 1032.63 603.138)" fill="url(#paint19_linear_714_2856)" fill-opacity="0.9"/>
<g filter="url(#filter5_f_714_2856)">
<circle cx="27.5373" cy="27.5373" r="27.5373" transform="matrix(-0.838934 -0.544234 -0.544234 0.838934 1066.91 597.377)" fill="url(#paint20_radial_714_2856)"/>
</g>
<g filter="url(#filter6_f_714_2856)">
<ellipse cx="15.711" cy="15.711" rx="15.711" ry="15.711" transform="matrix(-0.838932 -0.544236 -0.544232 0.838935 1052.33 621.777)" fill="url(#paint21_radial_714_2856)"/>
</g>
<rect width="93.3811" height="6.10888" rx="3.05444" transform="matrix(-0.838934 -0.544233 -0.544235 0.838933 1033.47 624.632)" fill="url(#paint22_linear_714_2856)" fill-opacity="0.6"/>
<g filter="url(#filter7_f_714_2856)">
<ellipse cx="20.7854" cy="20.7854" rx="20.7854" ry="20.7854" transform="matrix(-0.838935 -0.544232 -0.544235 0.838933 1059.35 620.283)" fill="url(#paint23_radial_714_2856)"/>
</g>
<g opacity="0.6">
<g filter="url(#filter8_f_714_2856)">
<circle cx="859.971" cy="588.574" r="10.4972" transform="rotate(-32.8046 859.971 588.574)" fill="url(#paint24_radial_714_2856)"/>
</g>
<rect x="857.629" y="588.308" width="66.8241" height="2.98346" rx="1.49173" transform="rotate(-32.8046 857.629 588.308)" fill="url(#paint25_linear_714_2856)" fill-opacity="0.6"/>
</g>
<rect width="66.8241" height="2.98346" rx="1.49173" transform="matrix(-0.869976 -0.493093 -0.493093 0.869976 1109.88 529.269)" fill="url(#paint26_linear_714_2856)"/>
<g filter="url(#filter9_f_714_2856)">
<circle cx="10.4972" cy="10.4972" r="10.4972" transform="matrix(-0.869976 -0.493093 -0.493093 0.869976 1121.86 525.711)" fill="url(#paint27_radial_714_2856)"/>
</g>
<g filter="url(#filter10_f_714_2856)">
<circle cx="14.4943" cy="14.4943" r="14.4943" transform="matrix(-0.869976 -0.493093 -0.493093 0.869976 1127.31 524.205)" fill="url(#paint28_radial_714_2856)"/>
</g>
<g opacity="0.3">
<rect width="66.8241" height="2.98346" rx="1.49173" transform="matrix(-0.869977 -0.493093 -0.493094 0.869976 1116.86 565.827)" fill="url(#paint29_linear_714_2856)"/>
<g filter="url(#filter11_f_714_2856)">
<circle cx="10.4972" cy="10.4972" r="10.4972" transform="matrix(-0.869976 -0.493093 -0.493093 0.869976 1128.84 562.269)" fill="url(#paint30_radial_714_2856)"/>
</g>
</g>
<rect x="914.685" y="569.207" width="114.234" height="11.8726" rx="5.9363" transform="rotate(-31.6208 914.685 569.207)" fill="url(#paint31_linear_714_2856)" fill-opacity="0.6"/>
<g filter="url(#filter12_f_714_2856)">
<circle cx="922.994" cy="571.062" r="35.0999" transform="rotate(-31.6208 922.994 571.062)" fill="url(#paint32_radial_714_2856)"/>
</g>
<g opacity="0.5">
<rect width="67.8232" height="9.89409" rx="4.94705" transform="matrix(0.866026 -0.499999 0.500001 0.866025 913.414 633.039)" fill="url(#paint33_linear_714_2856)" fill-opacity="0.6"/>
<g filter="url(#filter13_f_714_2856)">
<circle cx="920.289" cy="634.782" r="29.2507" transform="rotate(-30 920.289 634.782)" fill="url(#paint34_radial_714_2856)"/>
</g>
</g>
<path d="M884.606 369.653L965.274 328.428L1045.94 369.653L965.274 416.564L884.606 369.653Z" stroke="url(#paint35_linear_714_2856)" stroke-width="1.03515"/>
<path d="M965.274 316.811L1041.75 358.588L965.274 406.127L889.33 358.588L965.274 316.811Z" fill="url(#paint36_linear_714_2856)" fill-opacity="0.6"/>
<path d="M889.331 358.588L965.279 406.132L969.233 219.945L889.331 358.588Z" fill="url(#paint37_linear_714_2856)"/>
<path d="M889.331 358.588L965.279 406.132L969.233 219.945L889.331 358.588Z" fill="url(#paint38_linear_714_2856)" fill-opacity="0.4"/>
<path d="M1041.75 358.593L965.279 406.132L969.232 219.945L1041.75 358.593Z" fill="url(#paint39_linear_714_2856)" fill-opacity="0.8"/>
<g filter="url(#filter14_f_714_2856)">
<ellipse cx="936.737" cy="320.361" rx="10.4972" ry="10.4972" transform="rotate(-32.8046 936.737 320.361)" fill="url(#paint40_radial_714_2856)"/>
</g>
<g filter="url(#filter15_f_714_2856)">
<ellipse cx="936.737" cy="320.361" rx="10.4972" ry="10.4972" transform="rotate(-32.8046 936.737 320.361)" fill="url(#paint41_radial_714_2856)"/>
</g>
<rect width="36.1571" height="2.98346" rx="1.49173" transform="matrix(0.840522 -0.541777 0.541773 0.840525 934.396 320.094)" fill="url(#paint42_linear_714_2856)" fill-opacity="0.6"/>
<g filter="url(#filter16_f_714_2856)">
<circle cx="14.8426" cy="14.8426" r="14.8426" transform="matrix(-0.866025 -0.5 -0.5 0.866025 1036.52 347.034)" fill="url(#paint43_radial_714_2856)"/>
</g>
<rect width="60.9571" height="4.2185" rx="2.10925" transform="matrix(-0.866024 -0.500002 -0.499998 0.866027 1019.53 351.932)" fill="url(#paint44_linear_714_2856)" fill-opacity="0.9"/>
<g filter="url(#filter17_f_714_2856)">
<circle cx="19.6365" cy="19.6365" r="19.6365" transform="matrix(-0.866025 -0.5 -0.5 0.866025 1043.06 345.28)" fill="url(#paint45_radial_714_2856)"/>
</g>
<g opacity="0.4">
<g filter="url(#filter18_f_714_2856)">
<circle cx="10.4067" cy="10.4067" r="10.4067" transform="matrix(-0.866025 -0.5 -0.5 0.866025 1014.94 354.224)" fill="url(#paint46_radial_714_2856)"/>
</g>
<rect width="42.7394" height="2.95775" rx="1.47888" transform="matrix(-0.866026 -0.5 -0.5 0.866025 1003.03 357.656)" fill="url(#paint47_linear_714_2856)" fill-opacity="0.9"/>
<g filter="url(#filter19_f_714_2856)">
<circle cx="13.7679" cy="13.7679" r="13.7679" transform="matrix(-0.866025 -0.5 -0.5 0.866025 1019.53 352.993)" fill="url(#paint48_radial_714_2856)"/>
</g>
</g>
<g opacity="0.4">
<g filter="url(#filter20_f_714_2856)">
<ellipse cx="6.58759" cy="6.58759" rx="6.58759" ry="6.58759" transform="matrix(0.866028 -0.499995 0.500005 0.866023 928.809 344.812)" fill="url(#paint49_radial_714_2856)"/>
</g>
<rect width="27.0545" height="1.87229" rx="0.936147" transform="matrix(0.866024 -0.500002 0.499998 0.866027 936.348 346.983)" fill="url(#paint50_linear_714_2856)" fill-opacity="0.9"/>
<g filter="url(#filter21_f_714_2856)">
<ellipse cx="8.71526" cy="8.71526" rx="8.71526" ry="8.71526" transform="matrix(0.866023 -0.500004 0.499996 0.866028 925.902 344.031)" fill="url(#paint51_radial_714_2856)"/>
</g>
</g>
<path d="M1041.75 358.593L965.279 406.132L969.232 219.945L1041.75 358.593Z" fill="url(#paint52_linear_714_2856)" fill-opacity="0.4"/>
<defs>
<filter id="filter0_f_714_2856" x="822.133" y="526.073" width="47.8467" height="47.8472" filterUnits="userSpaceOnUse" color-interpolation-filters="sRGB">
<feFlood flood-opacity="0" result="BackgroundImageFix"/>
<feBlend mode="normal" in="SourceGraphic" in2="BackgroundImageFix" result="shape"/>
<feGaussianBlur stdDeviation="1.55273" result="effect1_foregroundBlur_714_2856"/>
</filter>
<filter id="filter1_f_714_2856" x="822.133" y="526.073" width="47.8467" height="47.8472" filterUnits="userSpaceOnUse" color-interpolation-filters="sRGB">
<feFlood flood-opacity="0" result="BackgroundImageFix"/>
<feBlend mode="normal" in="SourceGraphic" in2="BackgroundImageFix" result="shape"/>
<feGaussianBlur stdDeviation="1.55273" result="effect1_foregroundBlur_714_2856"/>
</filter>
<filter id="filter2_f_714_2856" x="1022.31" y="513.009" width="47.8467" height="47.8472" filterUnits="userSpaceOnUse" color-interpolation-filters="sRGB">
<feFlood flood-opacity="0" result="BackgroundImageFix"/>
<feBlend mode="normal" in="SourceGraphic" in2="BackgroundImageFix" result="shape"/>
<feGaussianBlur stdDeviation="1.55273" result="effect1_foregroundBlur_714_2856"/>
</filter>
<filter id="filter3_f_714_2856" x="1015.58" y="506.285" width="61.2944" height="61.2944" filterUnits="userSpaceOnUse" color-interpolation-filters="sRGB">
<feFlood flood-opacity="0" result="BackgroundImageFix"/>
<feBlend mode="normal" in="SourceGraphic" in2="BackgroundImageFix" result="shape"/>
<feGaussianBlur stdDeviation="1.55273" result="effect1_foregroundBlur_714_2856"/>
</filter>
<filter id="filter4_f_714_2856" x="1004.9" y="581.569" width="47.8447" height="47.8447" filterUnits="userSpaceOnUse" color-interpolation-filters="sRGB">
<feFlood flood-opacity="0" result="BackgroundImageFix"/>
<feBlend mode="normal" in="SourceGraphic" in2="BackgroundImageFix" result="shape"/>
<feGaussianBlur stdDeviation="1.55273" result="effect1_foregroundBlur_714_2856"/>
</filter>
<filter id="filter5_f_714_2856" x="998.175" y="574.846" width="61.2915" height="61.292" filterUnits="userSpaceOnUse" color-interpolation-filters="sRGB">
<feFlood flood-opacity="0" result="BackgroundImageFix"/>
<feBlend mode="normal" in="SourceGraphic" in2="BackgroundImageFix" result="shape"/>
<feGaussianBlur stdDeviation="1.55273" result="effect1_foregroundBlur_714_2856"/>
</filter>
<filter id="filter6_f_714_2856" x="1011.78" y="607.589" width="37.6367" height="37.6365" filterUnits="userSpaceOnUse" color-interpolation-filters="sRGB">
<feFlood flood-opacity="0" result="BackgroundImageFix"/>
<feBlend mode="normal" in="SourceGraphic" in2="BackgroundImageFix" result="shape"/>
<feGaussianBlur stdDeviation="1.55273" result="effect1_foregroundBlur_714_2856"/>
</filter>
<filter id="filter7_f_714_2856" x="1006.71" y="602.515" width="47.7866" height="47.7866" filterUnits="userSpaceOnUse" color-interpolation-filters="sRGB">
<feFlood flood-opacity="0" result="BackgroundImageFix"/>
<feBlend mode="normal" in="SourceGraphic" in2="BackgroundImageFix" result="shape"/>
<feGaussianBlur stdDeviation="1.55273" result="effect1_foregroundBlur_714_2856"/>
</filter>
<filter id="filter8_f_714_2856" x="846.367" y="574.971" width="27.208" height="27.2078" filterUnits="userSpaceOnUse" color-interpolation-filters="sRGB">
<feFlood flood-opacity="0" result="BackgroundImageFix"/>
<feBlend mode="normal" in="SourceGraphic" in2="BackgroundImageFix" result="shape"/>
<feGaussianBlur stdDeviation="1.55273" result="effect1_foregroundBlur_714_2856"/>
</filter>
<filter id="filter9_f_714_2856" x="1093.95" y="516.063" width="27.209" height="27.209" filterUnits="userSpaceOnUse" color-interpolation-filters="sRGB">
<feFlood flood-opacity="0" result="BackgroundImageFix"/>
<feBlend mode="normal" in="SourceGraphic" in2="BackgroundImageFix" result="shape"/>
<feGaussianBlur stdDeviation="1.55273" result="effect1_foregroundBlur_714_2856"/>
</filter>
<filter id="filter10_f_714_2856" x="1089.95" y="512.065" width="35.2046" height="35.2046" filterUnits="userSpaceOnUse" color-interpolation-filters="sRGB">
<feFlood flood-opacity="0" result="BackgroundImageFix"/>
<feBlend mode="normal" in="SourceGraphic" in2="BackgroundImageFix" result="shape"/>
<feGaussianBlur stdDeviation="1.55273" result="effect1_foregroundBlur_714_2856"/>
</filter>
<filter id="filter11_f_714_2856" x="1100.93" y="552.621" width="27.209" height="27.209" filterUnits="userSpaceOnUse" color-interpolation-filters="sRGB">
<feFlood flood-opacity="0" result="BackgroundImageFix"/>
<feBlend mode="normal" in="SourceGraphic" in2="BackgroundImageFix" result="shape"/>
<feGaussianBlur stdDeviation="1.55273" result="effect1_foregroundBlur_714_2856"/>
</filter>
<filter id="filter12_f_714_2856" x="884.784" y="532.852" width="76.4209" height="76.4206" filterUnits="userSpaceOnUse" color-interpolation-filters="sRGB">
<feFlood flood-opacity="0" result="BackgroundImageFix"/>
<feBlend mode="normal" in="SourceGraphic" in2="BackgroundImageFix" result="shape"/>
<feGaussianBlur stdDeviation="1.55273" result="effect1_foregroundBlur_714_2856"/>
</filter>
<filter id="filter13_f_714_2856" x="887.928" y="602.421" width="64.7222" height="64.7222" filterUnits="userSpaceOnUse" color-interpolation-filters="sRGB">
<feFlood flood-opacity="0" result="BackgroundImageFix"/>
<feBlend mode="normal" in="SourceGraphic" in2="BackgroundImageFix" result="shape"/>
<feGaussianBlur stdDeviation="1.55273" result="effect1_foregroundBlur_714_2856"/>
</filter>
<filter id="filter14_f_714_2856" x="923.133" y="306.757" width="27.208" height="27.2078" filterUnits="userSpaceOnUse" color-interpolation-filters="sRGB">
<feFlood flood-opacity="0" result="BackgroundImageFix"/>
<feBlend mode="normal" in="SourceGraphic" in2="BackgroundImageFix" result="shape"/>
<feGaussianBlur stdDeviation="1.55273" result="effect1_foregroundBlur_714_2856"/>
</filter>
<filter id="filter15_f_714_2856" x="923.133" y="306.757" width="27.208" height="27.2078" filterUnits="userSpaceOnUse" color-interpolation-filters="sRGB">
<feFlood flood-opacity="0" result="BackgroundImageFix"/>
<feBlend mode="normal" in="SourceGraphic" in2="BackgroundImageFix" result="shape"/>
<feGaussianBlur stdDeviation="1.55273" result="effect1_foregroundBlur_714_2856"/>
</filter>
<filter id="filter16_f_714_2856" x="998.29" y="334.517" width="35.9014" height="35.9011" filterUnits="userSpaceOnUse" color-interpolation-filters="sRGB">
<feFlood flood-opacity="0" result="BackgroundImageFix"/>
<feBlend mode="normal" in="SourceGraphic" in2="BackgroundImageFix" result="shape"/>
<feGaussianBlur stdDeviation="1.55273" result="effect1_foregroundBlur_714_2856"/>
</filter>
<filter id="filter17_f_714_2856" x="993.494" y="329.722" width="45.4907" height="45.4906" filterUnits="userSpaceOnUse" color-interpolation-filters="sRGB">
<feFlood flood-opacity="0" result="BackgroundImageFix"/>
<feBlend mode="normal" in="SourceGraphic" in2="BackgroundImageFix" result="shape"/>
<feGaussianBlur stdDeviation="1.55273" result="effect1_foregroundBlur_714_2856"/>
</filter>
<filter id="filter18_f_714_2856" x="987.209" y="344.519" width="27.0278" height="27.0279" filterUnits="userSpaceOnUse" color-interpolation-filters="sRGB">
<feFlood flood-opacity="0" result="BackgroundImageFix"/>
<feBlend mode="normal" in="SourceGraphic" in2="BackgroundImageFix" result="shape"/>
<feGaussianBlur stdDeviation="1.55273" result="effect1_foregroundBlur_714_2856"/>
</filter>
<filter id="filter19_f_714_2856" x="983.848" y="341.156" width="33.7515" height="33.7515" filterUnits="userSpaceOnUse" color-interpolation-filters="sRGB">
<feFlood flood-opacity="0" result="BackgroundImageFix"/>
<feBlend mode="normal" in="SourceGraphic" in2="BackgroundImageFix" result="shape"/>
<feGaussianBlur stdDeviation="1.55273" result="effect1_foregroundBlur_714_2856"/>
</filter>
<filter id="filter20_f_714_2856" x="928.114" y="337.529" width="19.3882" height="19.3882" filterUnits="userSpaceOnUse" color-interpolation-filters="sRGB">
<feFlood flood-opacity="0" result="BackgroundImageFix"/>
<feBlend mode="normal" in="SourceGraphic" in2="BackgroundImageFix" result="shape"/>
<feGaussianBlur stdDeviation="1.55273" result="effect1_foregroundBlur_714_2856"/>
</filter>
<filter id="filter21_f_714_2856" x="925.985" y="335.399" width="23.6445" height="23.6444" filterUnits="userSpaceOnUse" color-interpolation-filters="sRGB">
<feFlood flood-opacity="0" result="BackgroundImageFix"/>
<feBlend mode="normal" in="SourceGraphic" in2="BackgroundImageFix" result="shape"/>
<feGaussianBlur stdDeviation="1.55273" result="effect1_foregroundBlur_714_2856"/>
</filter>
<linearGradient id="paint0_linear_714_2856" x1="1112.01" y1="537.416" x2="800.912" y2="605.087" gradientUnits="userSpaceOnUse">
<stop stop-color="#E8F5FF"/>
<stop offset="1" stop-color="#1E126B"/>
</linearGradient>
<linearGradient id="paint1_linear_714_2856" x1="986.809" y1="635.407" x2="981.276" y2="735.629" gradientUnits="userSpaceOnUse">
<stop stop-color="#193DB9" stop-opacity="0"/>
<stop offset="1" stop-color="#57E1FF"/>
</linearGradient>
<linearGradient id="paint2_linear_714_2856" x1="960" y1="439.797" x2="960" y2="926.263" gradientUnits="userSpaceOnUse">
<stop offset="0.5" stop-color="#1D1644" stop-opacity="0.5"/>
<stop offset="0.84375" stop-color="#FF6BA0"/>
<stop offset="1" stop-color="#FFA6C6"/>
</linearGradient>
<linearGradient id="paint3_linear_714_2856" x1="959.999" y1="716.887" x2="959.999" y2="490.693" gradientUnits="userSpaceOnUse">
<stop stop-color="white"/>
<stop offset="0.666667" stop-color="#9A98FF" stop-opacity="0"/>
</linearGradient>
<linearGradient id="paint4_linear_714_2856" x1="1076.24" y1="441.424" x2="843.76" y2="441.424" gradientUnits="userSpaceOnUse">
<stop stop-color="white"/>
<stop offset="0.265625" stop-color="#52F5FF"/>
<stop offset="0.677083" stop-color="#5171E0"/>
<stop offset="1" stop-color="#FF86EC"/>
</linearGradient>
<linearGradient id="paint5_linear_714_2856" x1="909.177" y1="469.696" x2="804.88" y2="595.633" gradientUnits="userSpaceOnUse">
<stop offset="0.338542" stop-color="#FF7CCB"/>
<stop offset="0.354167" stop-color="#FF7CCB"/>
<stop offset="1" stop-color="#12406B"/>
</linearGradient>
<linearGradient id="paint6_linear_714_2856" x1="916.354" y1="482.75" x2="834.031" y2="614.386" gradientUnits="userSpaceOnUse">
<stop stop-color="white"/>
<stop offset="0.512495" stop-color="white" stop-opacity="0"/>
</linearGradient>
<linearGradient id="paint7_linear_714_2856" x1="843.032" y1="448.413" x2="831.55" y2="557.663" gradientUnits="userSpaceOnUse">
<stop stop-color="#EDFF7C"/>
<stop offset="0.572917" stop-color="#FF7CCB"/>
<stop offset="1" stop-color="#00F0FF"/>
</linearGradient>
<linearGradient id="paint8_linear_714_2856" x1="886.39" y1="461.765" x2="854.781" y2="541.942" gradientUnits="userSpaceOnUse">
<stop stop-color="white"/>
<stop offset="0.512495" stop-color="white" stop-opacity="0"/>
</linearGradient>
<linearGradient id="paint9_linear_714_2856" x1="1013.55" y1="457.869" x2="1117.35" y2="595.22" gradientUnits="userSpaceOnUse">
<stop offset="0.255208" stop-color="#132C85"/>
<stop offset="0.65625" stop-color="#FF87F3"/>
<stop offset="0.975883" stop-color="white"/>
</linearGradient>
<linearGradient id="paint10_linear_714_2856" x1="969.448" y1="449.704" x2="1142.26" y2="569.197" gradientUnits="userSpaceOnUse">
<stop offset="0.191757" stop-color="#0F246D" stop-opacity="0.6"/>
<stop offset="0.646372" stop-color="#88C6FF"/>
<stop offset="1" stop-color="white"/>
</linearGradient>
<linearGradient id="paint11_linear_714_2856" x1="970.431" y1="694.128" x2="1026.27" y2="522.862" gradientUnits="userSpaceOnUse">
<stop stop-color="#FF5EAB"/>
<stop offset="1" stop-color="#FF5EAB" stop-opacity="0"/>
</linearGradient>
<radialGradient id="paint12_radial_714_2856" cx="0" cy="0" r="1" gradientUnits="userSpaceOnUse" gradientTransform="translate(846.056 549.996) rotate(90) scale(20.8145)">
<stop stop-color="white"/>
<stop offset="1" stop-color="#FF38B0" stop-opacity="0"/>
</radialGradient>
<linearGradient id="paint13_linear_714_2856" x1="1.64011" y1="5.91566" x2="140.703" y2="5.91566" gradientUnits="userSpaceOnUse">
<stop stop-color="white"/>
<stop offset="0.828125" stop-color="#9CE7FF" stop-opacity="0"/>
</linearGradient>
<radialGradient id="paint14_radial_714_2856" cx="0" cy="0" r="1" gradientUnits="userSpaceOnUse" gradientTransform="translate(846.056 549.996) rotate(90) scale(20.8145)">
<stop stop-color="white"/>
<stop offset="1" stop-color="#FF38B0" stop-opacity="0"/>
</radialGradient>
<radialGradient id="paint15_radial_714_2856" cx="0" cy="0" r="1" gradientUnits="userSpaceOnUse" gradientTransform="translate(20.8145 20.8145) rotate(90) scale(20.8145 20.8145)">
<stop stop-color="white"/>
<stop offset="1" stop-color="#FF38B0" stop-opacity="0"/>
</radialGradient>
<linearGradient id="paint16_linear_714_2856" x1="1.64011" y1="5.91566" x2="140.703" y2="5.91566" gradientUnits="userSpaceOnUse">
<stop stop-color="#9EF9FF"/>
<stop offset="0.828125" stop-color="#9CE7FF" stop-opacity="0"/>
</linearGradient>
<radialGradient id="paint17_radial_714_2856" cx="0" cy="0" r="1" gradientUnits="userSpaceOnUse" gradientTransform="translate(27.5373 27.5373) rotate(90) scale(27.5373)">
<stop stop-color="white"/>
<stop offset="1" stop-color="#FF38B0" stop-opacity="0"/>
</radialGradient>
<radialGradient id="paint18_radial_714_2856" cx="0" cy="0" r="1" gradientUnits="userSpaceOnUse" gradientTransform="translate(20.8145 20.8145) rotate(90) scale(20.8145)">
<stop stop-color="white"/>
<stop offset="1" stop-color="#FF38B0" stop-opacity="0"/>
</radialGradient>
<linearGradient id="paint19_linear_714_2856" x1="1.01877" y1="8.09307" x2="87.399" y2="8.09307" gradientUnits="userSpaceOnUse">
<stop stop-color="#9EF9FF"/>
<stop offset="0.828125" stop-color="#9CE7FF" stop-opacity="0"/>
</linearGradient>
<radialGradient id="paint20_radial_714_2856" cx="0" cy="0" r="1" gradientUnits="userSpaceOnUse" gradientTransform="translate(27.5373 27.5373) rotate(90) scale(27.5373)">
<stop stop-color="white"/>
<stop offset="1" stop-color="#FF7BCA" stop-opacity="0"/>
</radialGradient>
<radialGradient id="paint21_radial_714_2856" cx="0" cy="0" r="1" gradientUnits="userSpaceOnUse" gradientTransform="translate(15.711 15.711) rotate(90) scale(15.711 15.711)">
<stop stop-color="white"/>
<stop offset="1" stop-color="#FF38B0" stop-opacity="0"/>
</radialGradient>
<linearGradient id="paint22_linear_714_2856" x1="1.15586" y1="6.10873" x2="99.1596" y2="6.10873" gradientUnits="userSpaceOnUse">
<stop stop-color="#9EF9FF"/>
<stop offset="0.828125" stop-color="#9CE7FF" stop-opacity="0"/>
</linearGradient>
<radialGradient id="paint23_radial_714_2856" cx="0" cy="0" r="1" gradientUnits="userSpaceOnUse" gradientTransform="translate(20.7854 20.7854) rotate(90) scale(20.7854 20.7854)">
<stop stop-color="white"/>
<stop offset="1" stop-color="#FFAFDF" stop-opacity="0"/>
</radialGradient>
<radialGradient id="paint24_radial_714_2856" cx="0" cy="0" r="1" gradientUnits="userSpaceOnUse" gradientTransform="translate(859.971 588.574) rotate(90) scale(10.4972)">
<stop stop-color="white"/>
<stop offset="1" stop-color="#FF38B0" stop-opacity="0"/>
</radialGradient>
<linearGradient id="paint25_linear_714_2856" x1="858.457" y1="591.291" x2="928.589" y2="591.291" gradientUnits="userSpaceOnUse">
<stop stop-color="white"/>
<stop offset="0.828125" stop-color="#9CE7FF" stop-opacity="0"/>
</linearGradient>
<linearGradient id="paint26_linear_714_2856" x1="0.827139" y1="2.98338" x2="70.9593" y2="2.98338" gradientUnits="userSpaceOnUse">
<stop stop-color="white"/>
<stop offset="0.828125" stop-color="#9CE7FF" stop-opacity="0"/>
</linearGradient>
<radialGradient id="paint27_radial_714_2856" cx="0" cy="0" r="1" gradientUnits="userSpaceOnUse" gradientTransform="translate(10.4972 10.4972) rotate(90) scale(10.4972)">
<stop stop-color="white"/>
<stop offset="1" stop-color="#FF38B0" stop-opacity="0"/>
</radialGradient>
<radialGradient id="paint28_radial_714_2856" cx="0" cy="0" r="1" gradientUnits="userSpaceOnUse" gradientTransform="translate(14.4943 14.4943) rotate(90) scale(14.4943)">
<stop stop-color="white"/>
<stop offset="1" stop-color="#FF38B0" stop-opacity="0"/>
</radialGradient>
<linearGradient id="paint29_linear_714_2856" x1="0.827139" y1="2.98338" x2="70.9593" y2="2.98338" gradientUnits="userSpaceOnUse">
<stop stop-color="white"/>
<stop offset="0.828125" stop-color="#9CE7FF" stop-opacity="0"/>
</linearGradient>
<radialGradient id="paint30_radial_714_2856" cx="0" cy="0" r="1" gradientUnits="userSpaceOnUse" gradientTransform="translate(10.4972 10.4972) rotate(90) scale(10.4972)">
<stop stop-color="white"/>
<stop offset="1" stop-color="#FF38B0" stop-opacity="0"/>
</radialGradient>
<linearGradient id="paint31_linear_714_2856" x1="916.099" y1="581.079" x2="1035.99" y2="581.079" gradientUnits="userSpaceOnUse">
<stop stop-color="#D8FFFD"/>
<stop offset="0.875" stop-color="#9CE7FF" stop-opacity="0"/>
</linearGradient>
<radialGradient id="paint32_radial_714_2856" cx="0" cy="0" r="1" gradientUnits="userSpaceOnUse" gradientTransform="translate(922.994 571.062) rotate(90) scale(35.0999)">
<stop stop-color="white"/>
<stop offset="1" stop-color="#FF38B0" stop-opacity="0"/>
</radialGradient>
<linearGradient id="paint33_linear_714_2856" x1="0.839505" y1="9.89384" x2="72.0201" y2="9.89384" gradientUnits="userSpaceOnUse">
<stop stop-color="#D8FFFD"/>
<stop offset="1" stop-color="#9CE7FF" stop-opacity="0"/>
</linearGradient>
<radialGradient id="paint34_radial_714_2856" cx="0" cy="0" r="1" gradientUnits="userSpaceOnUse" gradientTransform="translate(920.289 634.782) rotate(90) scale(29.2507)">
<stop stop-color="white"/>
<stop offset="1" stop-color="#FF38B0" stop-opacity="0"/>
</radialGradient>
<linearGradient id="paint35_linear_714_2856" x1="965.274" y1="416.828" x2="965.274" y2="330.761" gradientUnits="userSpaceOnUse">
<stop stop-color="white"/>
<stop offset="0.666667" stop-color="#9A98FF" stop-opacity="0"/>
</linearGradient>
<linearGradient id="paint36_linear_714_2856" x1="980.298" y1="310.382" x2="960.585" y2="384.657" gradientUnits="userSpaceOnUse">
<stop stop-color="#132C85"/>
<stop offset="0.807292" stop-color="#FF87F3"/>
<stop offset="0.975883" stop-color="white"/>
</linearGradient>
<linearGradient id="paint37_linear_714_2856" x1="900.639" y1="212.558" x2="883.796" y2="383.261" gradientUnits="userSpaceOnUse">
<stop offset="0.161458" stop-color="#EDFF7C"/>
<stop offset="0.637806" stop-color="#FF7CCB" stop-opacity="0.8"/>
<stop offset="1" stop-color="#00F0FF" stop-opacity="0.7"/>
</linearGradient>
<linearGradient id="paint38_linear_714_2856" x1="969.233" y1="223.279" x2="931.254" y2="258.982" gradientUnits="userSpaceOnUse">
<stop stop-color="white"/>
<stop offset="0.338173" stop-color="white" stop-opacity="0"/>
</linearGradient>
<linearGradient id="paint39_linear_714_2856" x1="969.232" y1="219.945" x2="961.068" y2="390.3" gradientUnits="userSpaceOnUse">
<stop offset="0.00313583" stop-color="#00E0FF"/>
<stop offset="0.545394" stop-color="#3E2DA5" stop-opacity="0.8"/>
<stop offset="1" stop-color="#FFF0F0"/>
</linearGradient>
<radialGradient id="paint40_radial_714_2856" cx="0" cy="0" r="1" gradientUnits="userSpaceOnUse" gradientTransform="translate(936.737 320.361) rotate(90) scale(10.4972 10.4972)">
<stop stop-color="white"/>
<stop offset="1" stop-color="#FF38B0" stop-opacity="0"/>
</radialGradient>
<radialGradient id="paint41_radial_714_2856" cx="0" cy="0" r="1" gradientUnits="userSpaceOnUse" gradientTransform="translate(936.737 320.361) rotate(90) scale(10.4972 10.4972)">
<stop stop-color="white"/>
<stop offset="1" stop-color="#FF38B0" stop-opacity="0"/>
</radialGradient>
<linearGradient id="paint42_linear_714_2856" x1="0.447548" y1="2.98338" x2="38.3946" y2="2.98338" gradientUnits="userSpaceOnUse">
<stop stop-color="white"/>
<stop offset="0.828125" stop-color="white" stop-opacity="0"/>
</linearGradient>
<radialGradient id="paint43_radial_714_2856" cx="0" cy="0" r="1" gradientUnits="userSpaceOnUse" gradientTransform="translate(14.8426 14.8426) rotate(90) scale(14.8426)">
<stop stop-color="white"/>
<stop offset="1" stop-color="#FF38B0" stop-opacity="0"/>
</radialGradient>
<linearGradient id="paint44_linear_714_2856" x1="0.754518" y1="4.2184" x2="64.7292" y2="4.2184" gradientUnits="userSpaceOnUse">
<stop stop-color="#9EF9FF"/>
<stop offset="0.828125" stop-color="#9CE7FF" stop-opacity="0"/>
</linearGradient>
<radialGradient id="paint45_radial_714_2856" cx="0" cy="0" r="1" gradientUnits="userSpaceOnUse" gradientTransform="translate(19.6365 19.6365) rotate(90) scale(19.6365)">
<stop stop-color="white"/>
<stop offset="1" stop-color="#FF38B0" stop-opacity="0"/>
</radialGradient>
<radialGradient id="paint46_radial_714_2856" cx="0" cy="0" r="1" gradientUnits="userSpaceOnUse" gradientTransform="translate(10.4067 10.4067) rotate(90) scale(10.4067)">
<stop stop-color="white"/>
<stop offset="1" stop-color="#FF38B0" stop-opacity="0"/>
</radialGradient>
<linearGradient id="paint47_linear_714_2856" x1="0.529022" y1="2.95768" x2="45.3842" y2="2.95768" gradientUnits="userSpaceOnUse">
<stop stop-color="#9EF9FF"/>
<stop offset="0.828125" stop-color="#9CE7FF" stop-opacity="0"/>
</linearGradient>
<radialGradient id="paint48_radial_714_2856" cx="0" cy="0" r="1" gradientUnits="userSpaceOnUse" gradientTransform="translate(13.7679 13.7679) rotate(90) scale(13.7679)">
<stop stop-color="white"/>
<stop offset="1" stop-color="#FF38B0" stop-opacity="0"/>
</radialGradient>
<radialGradient id="paint49_radial_714_2856" cx="0" cy="0" r="1" gradientUnits="userSpaceOnUse" gradientTransform="translate(6.58759 6.58759) rotate(90) scale(6.58759 6.58759)">
<stop stop-color="white"/>
<stop offset="1" stop-color="#FF38B0" stop-opacity="0"/>
</radialGradient>
<linearGradient id="paint50_linear_714_2856" x1="0.334877" y1="1.87225" x2="28.7287" y2="1.87225" gradientUnits="userSpaceOnUse">
<stop stop-color="#9EF9FF"/>
<stop offset="0.828125" stop-color="#9CE7FF" stop-opacity="0"/>
</linearGradient>
<radialGradient id="paint51_radial_714_2856" cx="0" cy="0" r="1" gradientUnits="userSpaceOnUse" gradientTransform="translate(8.71526 8.71526) rotate(90) scale(8.71526)">
<stop stop-color="white"/>
<stop offset="1" stop-color="#FF38B0" stop-opacity="0"/>
</radialGradient>
<linearGradient id="paint52_linear_714_2856" x1="1030.97" y1="363.991" x2="986.577" y2="314.888" gradientUnits="userSpaceOnUse">
<stop stop-color="white"/>
<stop offset="1" stop-color="white" stop-opacity="0"/>
</linearGradient>
</defs>
</svg>
